# xmcd CD database file
#
# Track frame offsets:
#	187
#	19407
#	34952
#	48437
#	62685
#	82320
#	95870
#	111822
#	133212
#	150727
#	166852
#	186610
#	202760
#
# Disc length: 2938 seconds
#
# Revision: 9
# Processed by: cddbd v1.5.2PL0 Copyright (c) Steve Scherf et al.
# Submitted via: CDex 1.79
#
DISCID=bd0b780d
DTITLE=Various Artist - Keith Whitley - A Tribute Album
DYEAR=1994
DGENRE=Country
TTITLE0=Alan jackson - Don`t Close Your Eyes
TTITLE1=Diamond Rio - Ten Feet Away
TTITLE2=Keith Whitley - I`m Gonna Hurt Her On The Radio
TTITLE3=Tracy Lawrence - I`m Over You
TTITLE4=Alison Krauss and Union Station - When You Say Nothing At All
TTITLE5=Keith Whitley - Charlotte`s In North Carolina
TTITLE6=Keith Whitley and Lorrie Morgan - I Just want You
TTITLE7=Daron Norwood - Little Boy Lost
TTITLE8=Ricky Skaggs and Shenandoah - All I Ever Loved Was You
TTITLE9=Joe Diffie - I' m No Stranger To The Rain
TTITLE10=Mark Chesnutt - I never Go Araound Mirrors
TTITLE11=Keith Whitley - The Comeback Kid
TTITLE12=Various Artist - A Voice Still Rings True
EXTD=YEAR: 1994
EXTT0=
EXTT1=
EXTT2=
EXTT3=
EXTT4=
EXTT5=
EXTT6=
EXTT7=
EXTT8=
EXTT9=
EXTT10=
EXTT11=
EXTT12=
PLAYORDER=
